<svg xmlns="http://www.w3.org/2000/svg" width="960" height="480" viewBox="0 0 960 480">
<style>text{font-family:Arial,sans-serif;fill:#222}.small{font-size:12px}.title{font-size:22px;font-weight:bold}.legend{font-size:13px}</style>
<rect width="100%" height="100%" fill="white"/>
<text x="480.0" y="28" text-anchor="middle" class="title">Nike after-hours selloff and Apr 1 follow-through</text>
<line x1="70" y1="435.0" x2="940" y2="435.0" stroke="#eee"/>
<text x="62" y="439.0" text-anchor="end" class="small">44.52</text>
<line x1="70" y1="357.0" x2="940" y2="357.0" stroke="#eee"/>
<text x="62" y="361.0" text-anchor="end" class="small">46.37</text>
<line x1="70" y1="279.0" x2="940" y2="279.0" stroke="#eee"/>
<text x="62" y="283.0" text-anchor="end" class="small">48.22</text>
<line x1="70" y1="201.0" x2="940" y2="201.0" stroke="#eee"/>
<text x="62" y="205.0" text-anchor="end" class="small">50.07</text>
<line x1="70" y1="123.0" x2="940" y2="123.0" stroke="#eee"/>
<text x="62" y="127.0" text-anchor="end" class="small">51.92</text>
<line x1="70" y1="45.0" x2="940" y2="45.0" stroke="#eee"/>
<text x="62" y="49.0" text-anchor="end" class="small">53.77</text>
<line x1="90.7" y1="45" x2="90.7" y2="435" stroke="#f3f3f3"/>
<text x="90.7" y="465" text-anchor="middle" class="small">16:00</text>
<line x1="132.2" y1="45" x2="132.2" y2="435" stroke="#f3f3f3"/>
<text x="132.2" y="465" text-anchor="middle" class="small">17:00</text>
<line x1="173.7" y1="45" x2="173.7" y2="435" stroke="#f3f3f3"/>
<text x="173.7" y="465" text-anchor="middle" class="small">18:00</text>
<line x1="215.2" y1="45" x2="215.2" y2="435" stroke="#f3f3f3"/>
<text x="215.2" y="465" text-anchor="middle" class="small">19:00</text>
<line x1="256.7" y1="45" x2="256.7" y2="435" stroke="#f3f3f3"/>
<text x="256.7" y="465" text-anchor="middle" class="small">20:00</text>
<line x1="298.2" y1="45" x2="298.2" y2="435" stroke="#f3f3f3"/>
<text x="298.2" y="465" text-anchor="middle" class="small">21:00</text>
<line x1="339.7" y1="45" x2="339.7" y2="435" stroke="#f3f3f3"/>
<text x="339.7" y="465" text-anchor="middle" class="small">22:00</text>
<line x1="381.2" y1="45" x2="381.2" y2="435" stroke="#f3f3f3"/>
<text x="381.2" y="465" text-anchor="middle" class="small">23:00</text>
<line x1="422.7" y1="45" x2="422.7" y2="435" stroke="#f3f3f3"/>
<text x="422.7" y="465" text-anchor="middle" class="small">00:00</text>
<line x1="464.2" y1="45" x2="464.2" y2="435" stroke="#f3f3f3"/>
<text x="464.2" y="465" text-anchor="middle" class="small">01:00</text>
<line x1="505.6" y1="45" x2="505.6" y2="435" stroke="#f3f3f3"/>
<text x="505.6" y="465" text-anchor="middle" class="small">02:00</text>
<line x1="547.1" y1="45" x2="547.1" y2="435" stroke="#f3f3f3"/>
<text x="547.1" y="465" text-anchor="middle" class="small">03:00</text>
<line x1="588.6" y1="45" x2="588.6" y2="435" stroke="#f3f3f3"/>
<text x="588.6" y="465" text-anchor="middle" class="small">04:00</text>
<line x1="630.1" y1="45" x2="630.1" y2="435" stroke="#f3f3f3"/>
<text x="630.1" y="465" text-anchor="middle" class="small">05:00</text>
<line x1="671.6" y1="45" x2="671.6" y2="435" stroke="#f3f3f3"/>
<text x="671.6" y="465" text-anchor="middle" class="small">06:00</text>
<line x1="713.1" y1="45" x2="713.1" y2="435" stroke="#f3f3f3"/>
<text x="713.1" y="465" text-anchor="middle" class="small">07:00</text>
<line x1="754.6" y1="45" x2="754.6" y2="435" stroke="#f3f3f3"/>
<text x="754.6" y="465" text-anchor="middle" class="small">08:00</text>
<line x1="796.1" y1="45" x2="796.1" y2="435" stroke="#f3f3f3"/>
<text x="796.1" y="465" text-anchor="middle" class="small">09:00</text>
<line x1="837.6" y1="45" x2="837.6" y2="435" stroke="#f3f3f3"/>
<text x="837.6" y="465" text-anchor="middle" class="small">10:00</text>
<line x1="879.0" y1="45" x2="879.0" y2="435" stroke="#f3f3f3"/>
<text x="879.0" y="465" text-anchor="middle" class="small">11:00</text>
<line x1="920.5" y1="45" x2="920.5" y2="435" stroke="#f3f3f3"/>
<text x="920.5" y="465" text-anchor="middle" class="small">12:00</text>
<line x1="70" y1="45" x2="70" y2="435" stroke="#999"/>
<line x1="70" y1="435" x2="940" y2="435" stroke="#999"/>
<polyline fill="none" stroke="#d62728" stroke-width="2.5" points="70.0,84.3 73.5,81.6 76.9,79.3 80.4,76.1 83.8,80.7 87.3,84.3 90.7,83.3 94.2,71.9 97.7,77.4 101.1,92.0 104.6,134.7 108.0,146.5 111.5,141.5 114.9,138.9 118.4,136.9 121.9,148.2 125.3,146.2 128.8,162.5 132.2,157.5 135.7,187.0 139.1,178.6 142.6,182.3 146.1,204.3 149.5,215.4 153.0,246.4 156.4,273.7 159.9,280.8 163.4,277.9 166.8,274.7 170.3,279.7 173.7,277.6 177.2,289.0 180.6,281.8 184.1,282.3 187.6,289.0 191.0,289.0 194.5,285.2 197.9,292.4 201.4,289.0 204.8,283.9 208.3,282.3 211.8,284.1 215.2,282.8 218.7,280.2 222.1,284.3 225.6,281.8 229.0,283.5 232.5,279.7 236.0,276.4 239.4,283.9 242.9,283.9 246.3,283.1 249.8,286.9 253.2,287.1 588.6,287.0 592.1,287.7 595.5,286.9 599.0,292.4 602.4,294.3 605.9,288.2 609.4,284.4 612.8,286.5 616.3,285.6 619.7,286.9 623.2,296.6 626.7,298.7 630.1,298.7 633.6,305.0 637.0,297.9 640.5,297.1 643.9,297.9 647.4,298.9 650.9,311.8 654.3,317.3 657.8,315.1 661.2,310.9 664.7,312.4 668.1,311.9 671.6,323.2 675.1,315.1 678.5,313.5 682.0,309.2 685.4,306.3 688.9,307.1 692.3,308.0 695.8,319.8 699.3,315.6 702.7,314.3 706.2,312.6 709.6,310.5 713.1,315.6 716.5,326.5 720.0,319.8 723.5,313.5 726.9,317.7 730.4,326.1 733.8,331.2 737.3,328.2 740.7,321.9 744.2,322.7 747.7,334.1 751.1,332.5 754.6,337.5 758.0,329.5 761.5,333.9 764.9,330.3 768.4,331.5 771.9,335.8 775.3,335.7 778.8,336.6 782.2,337.2 785.7,338.8 789.2,339.6 792.6,343.0 796.1,347.6 799.5,345.2 803.0,351.4 816.8,375.0 820.3,379.4 823.7,384.1 827.2,383.1 830.6,380.0 834.1,371.0 837.6,381.5 841.0,388.3 844.5,394.0 847.9,403.1 851.4,405.5 854.8,401.6 858.3,399.7 861.8,399.3 865.2,403.7 868.7,403.3 872.1,391.2 875.6,398.0 879.0,397.1 882.5,395.5 886.0,399.6 889.4,390.0 892.9,392.3 896.3,396.7 899.8,396.7 903.2,391.9 906.7,388.7 910.2,393.8 913.6,399.3 917.1,403.0 920.5,405.0 924.0,405.2 927.4,408.1 930.9,407.3 934.4,407.9 937.8,407.9 940.0,408.1"/>
<line x1="90.7" y1="45" x2="90.7" y2="435" stroke="#666" stroke-dasharray="4,4"/>
<text x="96.7" y="61" class="small">Q3 earnings</text>
<line x1="70" y1="472" x2="88" y2="472" stroke="#d62728" stroke-width="3"/>
<text x="94" y="476" class="legend">NKE</text>
<text x="20" y="240.0" transform="rotate(-90 20 240.0)" class="small">Price ($)</text>
</svg>